<?xml version="1.0" standalone="no"?>
<!DOCTYPE svg PUBLIC "-//W3C//DTD SVG 1.1//EN" "http://www.w3.org/Graphics/SVG/1.1/DTD/svg11.dtd" >
<svg xmlns="http://www.w3.org/2000/svg">
<metadata>
Created by FontForge 20120731 at Wed Apr 12 13:46:05 2017
 By admin
</metadata>
<defs>
<font id="iconfont" horiz-adv-x="1024" >
  <font-face 
    font-family="iconfont"
    font-weight="500"
    font-stretch="normal"
    units-per-em="1024"
    panose-1="2 0 6 3 0 0 0 0 0 0"
    ascent="896"
    descent="-128"
    x-height="792"
    bbox="0 -128 1026 896"
    underline-thickness="0"
    underline-position="0"
    unicode-range="U+0078-E68D"
  />
<missing-glyph 
 />
    <glyph glyph-name=".notdef" 
 />
    <glyph glyph-name=".notdef" 
 />
    <glyph glyph-name=".null" horiz-adv-x="0" 
 />
    <glyph glyph-name="nonmarkingreturn" horiz-adv-x="341" 
 />
    <glyph glyph-name="x" unicode="x" horiz-adv-x="1001" 
d="M281 543q-27 -1 -53 -1h-83q-18 0 -36.5 -6t-32.5 -18.5t-23 -32t-9 -45.5v-76h912v41q0 16 -0.5 30t-0.5 18q0 13 -5 29t-17 29.5t-31.5 22.5t-49.5 9h-133v-97h-438v97zM955 310v-52q0 -23 0.5 -52t0.5 -58t-10.5 -47.5t-26 -30t-33 -16t-31.5 -4.5q-14 -1 -29.5 -0.5
t-29.5 0.5h-32l-45 128h-439l-44 -128h-29h-34q-20 0 -45 1q-25 0 -41 9.5t-25.5 23t-13.5 29.5t-4 30v167h911zM163 247q-12 0 -21 -8.5t-9 -21.5t9 -21.5t21 -8.5q13 0 22 8.5t9 21.5t-9 21.5t-22 8.5zM316 123q-8 -26 -14 -48q-5 -19 -10.5 -37t-7.5 -25t-3 -15t1 -14.5
t9.5 -10.5t21.5 -4h37h67h81h80h64h36q23 0 34 12t2 38q-5 13 -9.5 30.5t-9.5 34.5q-5 19 -11 39h-368zM336 498v228q0 11 2.5 23t10 21.5t20.5 15.5t34 6h188q31 0 51.5 -14.5t20.5 -52.5v-227h-327z" />
    <glyph glyph-name="gerenxinxi1" unicode="&#xe641;" 
d="M951 740h-878q-30 0 -51.5 -21.5t-21.5 -51.5v-561q0 -30 21.5 -51.5t51.5 -21.5h878q30 0 51.5 21.5t21.5 51.5v561q0 30 -21.5 51.5t-51.5 21.5zM994 106q0 -18 -12.5 -30.5t-30.5 -12.5h-878q-18 0 -30.5 12.5t-12.5 30.5v561q0 18 12.5 30.5t30.5 12.5h878
q18 0 30.5 -12.5t12.5 -30.5v-561zM150 306q44 -15 107 -15q65 0 110 16q21 8 21 25q0 45 -27.5 79.5t-69.5 45.5q18 9 29 26.5t11 38.5q0 30 -21 51t-51 21t-51.5 -21t-21.5 -51q0 -21 11 -38.5t29 -26.5q-42 -11 -69.5 -45.5t-27.5 -79.5q0 -16 21 -26zM201 521.5
q0 23.5 17 40.5t40.5 17t40.5 -17t17 -40.5t-17 -40.5t-40.5 -17t-40.5 17t-17 40.5zM258.5 447q47.5 0 81 -33.5t33.5 -81.5q0 -7 -11 -11q-43 -15 -105 -15q-61 0 -101 14q-11 6 -11 12q0 48 33 81.5t80.5 33.5zM452 567.5q0 -7.5 15 -7.5h391q15 0 15 7.5t-15 7.5h-391
q-15 0 -15 -7.5zM452 446.5q0 -7.5 15 -7.5h391q15 0 15 7.5t-15 7.5h-391q-15 0 -15 -7.5zM452 326.5q0 -7.5 15 -7.5h391q15 0 15 7.5t-15 7.5h-391q-15 0 -15 -7.5zM136 206q0 -8 15 -8h707q15 0 15 7.5t-15 7.5h-707q-7 0 -11 -2t-4 -5z" />
    <glyph glyph-name="gerenxinxi" unicode="&#xe670;" 
d="M1009 669q0 30 -21 50.5t-50 20.5h-852v0q-29 0 -50 -20.5t-21 -50.5v0v-535q0 -30 21 -50.5t50 -20.5h852v0q29 0 50 20.5t21 50.5v535zM223 467q-12 10 -20.5 27.5t-8.5 33.5q0 32 22.5 54.5t54.5 22.5t54.5 -22.5t22.5 -54.5q0 -16 -8.5 -33.5t-20.5 -27.5
q38 -14 61.5 -48t23.5 -75q0 -22 -25 -32q-46 -15 -109 -15q-64 0 -107 15q-25 11 -25 32q1 41 24.5 75t60.5 48zM857 198h-709q-6 0 -10.5 4.5t-4.5 10.5t4.5 10.5t10.5 4.5h709q6 0 10 -4.5t4 -10.5t-4 -10.5t-10 -4.5zM857 304h-397q-6 0 -10 4.5t-4 10.5t4 10.5t10 4.5
h397q6 0 10 -4.5t4 -10.5t-4 -10.5t-10 -4.5zM857 424h-397q-6 0 -10 4.5t-4 10.5t4 10.5t10 4.5h397q6 0 10 -4.5t4 -10.5t-4 -10.5t-10 -4.5zM857 560h-397q-6 0 -10 4.5t-4 10.5t4 10.5t10 4.5h397q6 0 10 -4.5t4 -10.5t-4 -10.5t-10 -4.5z" />
    <glyph glyph-name="fabuwenzhang" unicode="&#xe671;" 
d="M513 46l124 78h-325q-27 0 -45.5 18t-18.5 44v21l-2 -3h-3q-4 0 -6 3q-1 2 -1 4q0 4 4 6l7 5h1v1v108l-56 -33q-1 -1 -2 -1q-4 0 -6 3q-1 2 -1 4q0 4 4 6l58 34l3 1v132l-119 -69q-1 -1 -2 -1q-4 0 -6 4q-1 1 -1 3q0 4 4 6l124 72v1v181l-204 -118q-26 -15 -33.5 -43.5
t7.5 -54.5l263 -460q9 -15 27 -25.5t36 -10.5q19 0 35 9l134 76v-1zM321 112l-15 -9q-2 -1 -4 -1q-4 0 -6 3q-1 2 -1 4q0 4 3 6l16 9q2 1 4 1q7 0 7 -7q0 -4 -4 -6zM264 201q0 -30 13 -46t35 -16h428q21 0 36 13.5t15 33.5v279l1 2q-6 5 -3 10q2 1 2 2v246q0 30 -18 53.5
t-47 23.5h-393q-30 0 -49.5 -23.5t-19.5 -52.5v-525zM352 651h359q8 0 8 -7.5t-8 -7.5h-359q-7 0 -7 7.5t7 7.5zM352 516h273q7 0 7 -7.5t-7 -7.5h-273q-7 0 -7 7.5t7 7.5zM352 410h187q7 0 7 -7.5t-7 -7.5h-187q-7 0 -7 7.5t7 7.5zM352 305h187q7 0 7 -7.5t-7 -7.5h-187
q-7 0 -7 7.5t7 7.5zM740 124h-77l-137 -87l58 -44q19 -14 43 -14h1q14 0 31 8.5t26 19.5l101 132q-22 -15 -46 -15zM1019 483q-4 26 -31 47l-182 136v-193l88 -65q7 -5 3 -10q-2 -3 -5 -3q-5 0 -7 1l-79 59v-142l12 -6q6 -6 3 -10q-3 -3 -5 -3q-5 0 -7 1h-3v-109q0 -1 1 -6
t0 -7l196 256q20 26 16 54z" />
    <glyph glyph-name="hangyedongtai" unicode="&#xe672;" 
d="M1020 27l-23 24q-3 4 -10.5 2.5t-7.5 -5.5v-15h-166v315q20 4 29 22l122 18q6 1 10 6t3 11t-6 9.5t-11 2.5l-113 -16q-3 12 -12.5 21t-21.5 13v185q0 7 -7.5 7t-7.5 -7v-184q-21 -1 -33 -20l-174 68q-1 14 -11 25.5t-23 15.5v95q0 7 -7.5 7t-7.5 -7v-94
q-13 -1 -26.5 -14.5t-13.5 -29.5l-191 -109q-11 14 -25 16v231q0 7 -7.5 7t-7.5 -7v-229q-22 -1 -35 -20l-191 68v286h16q4 0 5 2.5t-2 6.5l-23 23q-3 3 -7.5 3t-7.5 -3l-23 -23q-3 -4 -2 -6.5t5 -2.5h9v-707q0 -6 6 -10.5t12 -4.5h946v-14q0 -5 7.5 -6t10.5 3l24 24
q7 8 -1 17zM286 303q13 4 23.5 15.5t11.5 25.5l190 109q13 -15 31 -16v-404h-256v270zM557 438q16 3 26 17l174 -69q2 -15 15.5 -26.5t25.5 -13.5v-313h-241v405zM804 406v0q7 0 11.5 -4.5t4.5 -10.5t-4.5 -10.5t-11.5 -4.5v0q-6 0 -10.5 4.5t-4.5 10.5t4.5 10.5t10.5 4.5z
M548 497v0q7 0 11.5 -4.5t4.5 -11t-4.5 -10.5t-11.5 -4v0q-6 0 -10.5 4t-4.5 10.5t4.5 11t10.5 4.5zM277 361v0q7 0 11 -4.5t4 -10.5t-4 -10.5t-11 -4.5v0q-6 0 -10.5 4.5t-4.5 10.5t4.5 10.5t10.5 4.5zM229 342q2 -16 15.5 -28t26.5 -13v-268h-226v374z" />
    <glyph glyph-name="guanlizhongxin" unicode="&#xe673;" 
d="M767 433q-18 100 -95.5 165.5t-179.5 65.5q-116 0 -197.5 -82t-81.5 -197.5t81.5 -197.5t197.5 -82q29 0 58 6q-11 36 -11 74v1q0 97 66 168t162 79zM492 289q-39 0 -67 28t-28 67t28 67t67 28t67 -28t28 -67t-28 -67t-67 -28zM556 97q-32 -7 -64 -7q-122 0 -208 86
t-86 208t86 208.5t208 86.5v0q103 0 188 -72t102 -173h2.5h2.5q62 0 115 -28t88 -76q9 4 9 14v0v90q0 15 -17 23.5t-32 10.5l-51 5q-16 69 -60 136l29 36q10 13 11 27.5t-8 23.5l-72 72q-9 9 -23.5 8t-27.5 -12l-38 -31q-26 16 -65.5 32t-69.5 22l-5 56q-2 15 -11 29t-22 14
h-102q-14 0 -23 -14t-10 -29l-6 -57q-67 -16 -129 -56l-43 35q-13 10 -27.5 11t-23.5 -8l-72 -72q-9 -9 -8 -23.5t12 -27.5l37 -45q-15 -25 -30 -61.5t-21 -64.5l-54 -6q-14 -2 -23 -11t-9 -23v-101q0 -14 9 -23t23 -11l58 -6q16 -69 50 -124l-39 -48q-11 -13 -12 -27.5
t7 -23.5l72 -71q9 -9 23.5 -8t27.5 11l47 39q24 -16 60.5 -31.5t63.5 -21.5l7 -58q1 -16 10.5 -27t22.5 -11h102q12 0 21.5 11t11.5 27l6 55l8 1q30 4 44 9l-1 1l-1 1q-20 17 -40.5 46.5t-29.5 53.5zM783.5 418q-95.5 0 -163 -67.5t-67.5 -163.5t67.5 -163.5t163 -67.5
t163.5 67.5t68 163.5t-68 163.5t-163.5 67.5zM788 11q-73 0 -125 52t-52 125.5t52 125.5t125 52t125 -52t52 -125.5t-52 -125.5t-125 -52zM788 351q-67 0 -114.5 -47.5t-47.5 -114.5t47.5 -115t114.5 -48t114.5 48t47.5 115t-47.5 114.5t-114.5 47.5zM788 106
q-34 0 -58.5 24t-24.5 58.5t24.5 59t58.5 24.5t58.5 -24.5t24.5 -59t-24.5 -58.5t-58.5 -24z" />
    <glyph glyph-name="huishouzhan" unicode="&#xe674;" 
d="M890 858q-2 18 -18 28t-35 7l-313 -48v4l-3 19q-2 11 -11.5 19.5t-21.5 8.5h-5q-14 -3 -22 -14q-7 -9 -7 -19q0 -3 1 -6l3 -18q0 -3 1 -5l-313 -49q-18 -2 -30 -16q-13 -15 -10 -33q2 -16 15 -26t31 -10h8l14 2h1.5h1.5v-655q0 -73 40 -122t106 -49h341q71 0 123.5 52.5
t52.5 118.5v655q0 3 -1.5 3.5t-5.5 -0.5t-7 -1h-564l588 98q19 3 31 20.5t9 35.5zM614 556q0 9 6.5 15.5t15.5 6.5t16 -6.5t7 -15.5v-509q0 -9 -7 -15.5t-16 -6.5t-15.5 6.5t-6.5 15.5v509zM373 556q0 9 6.5 15.5t15.5 6.5t16 -6.5t7 -15.5v-509q0 -9 -7 -15.5t-16 -6.5
t-15.5 6.5t-6.5 15.5v509z" />
    <glyph glyph-name="jichuxinxi" unicode="&#xe675;" 
d="M211 57v719h-65q-23 0 -39.5 -19.5t-16.5 -41.5v-788q0 -19 13 -37t43 -18h622q14 0 29.5 14t15.5 41v50h-522q-32 0 -56 26.5t-24 53.5zM787 715h160l-179 181v-163q0 -18 19 -18zM787 700q-16 0 -25 9t-9 24v163h-477q-22 0 -36 -14.5t-14 -37.5v-68v0v-719
q0 -21 20.5 -43t44.5 -22h591q23 0 45 21.5t22 43.5v643h-162zM813 203h-435q-9 -14 -26 -14q-12 0 -21 8.5t-9 21t9 21.5t21 9q18 0 27 -16h434q6 0 10.5 -4t4.5 -10.5t-4.5 -11t-10.5 -4.5zM813 429h-435q-9 -14 -26 -14q-12 0 -21 8.5t-9 21t9 21.5t21 9q18 0 27 -16h434
q6 0 10.5 -4.5t4.5 -10.5t-4.5 -10.5t-10.5 -4.5zM813 640h-435q-9 -15 -26 -15q-12 0 -21 9t-9 21.5t9 21.5t21 9q18 0 27 -16h434q6 0 10.5 -4.5t4.5 -10.5t-4.5 -10.5t-10.5 -4.5z" />
    <glyph glyph-name="kehuqunzu" unicode="&#xe676;" 
d="M575 388q46 18 74 58.5t28 90.5q0 66 -47 113t-113 47t-113 -47t-47 -113q0 -50 28 -90.5t73 -58.5q-100 -20 -165.5 -99.5t-65.5 -183.5q0 -16 7.5 -27.5t15 -16t20.5 -10.5l1 -1q52 -18 121 -26t122 -8t125.5 9t123.5 26q43 17 43 54q0 104 -65.5 183.5t-165.5 99.5z
M383 402q-62 58 -62 141q0 51 24 94t65 69v0q0 1 -0.5 1t-0.5 0.5t-0.5 1l-0.5 0.5q-18 14 -47.5 24.5t-52.5 10.5q-66 0 -113 -47t-47 -113q0 -50 28 -90.5t73 -58.5q-100 -20 -165.5 -99.5t-65.5 -183.5q0 -37 44 -54q52 -18 134 -28q-3 20 -3 39q0 96 52.5 175.5
t137.5 117.5zM787 435q45 18 73 58.5t28 90.5q0 66 -47 113t-113 47q-57 0 -101 -36l-5 -4q36 -23 61 -70.5t25 -89.5v-1q0 -83 -61 -141q85 -38 137 -117.5t52 -175.5q0 -19 -3 -40l1 1q86 10 141 28q43 17 43 54q0 104 -66 183.5t-165 99.5z" />
    <glyph glyph-name="jianzhan" unicode="&#xe677;" 
d="M210 293v0q0 -16 11 -26.5t26.5 -10.5t27 10.5t11.5 26.5v0v0q0 15 -11.5 25.5t-27 10.5t-26.5 -10.5t-11 -25.5v0zM446 474l66 -63l66 63l-66 64zM210 656v0q0 -15 11 -26t26.5 -11t27 11t11.5 26v0v0q0 15 -11.5 26t-27 11t-26.5 -11t-11 -26v0zM752 655
q0 -15 10.5 -25.5t26 -10.5t26.5 10.5t11 25.5t-11 25.5t-26.5 10.5t-26 -10.5t-10.5 -25.5zM752 293q0 -15 10.5 -25.5t26 -10.5t26.5 10.5t11 25.5t-11 25.5t-26.5 10.5t-26 -10.5t-10.5 -25.5zM963 851h-907q-23 0 -39.5 -16t-16.5 -39v-643q0 -23 16.5 -40.5t39.5 -17.5
h360v-104h-152q-21 0 -34 -10l-66 -48q-11 -10 -6 -21q5 -10 20 -10h642q15 0 19 9q5 10 -6 19l-66 51q-13 10 -33 10h-140v104h369q24 0 42.5 18t18.5 40v643q0 22 -18.5 38.5t-42.5 16.5zM746 341q18 16 43 16q27 0 46.5 -18.5t19.5 -45t-19.5 -45.5t-47 -19t-46.5 19
t-19 45q0 17 9 32l-139 135l-81 -79l-15 15v0l-66 64l-131 -127q15 -18 15 -40q0 -27 -20 -46t-47.5 -19t-47 19t-19.5 45.5t19.5 45.5t47.5 19q19 0 36 -10l132 127l-132 128q-17 -11 -36 -11q-28 0 -47.5 19t-19.5 46t19.5 46t47 19t47.5 -19t20 -46q0 -22 -15 -40
l131 -127l66 64v0l15 14l81 -78l139 135q-9 14 -9 31q0 27 19 45.5t46.5 18.5t47 -18.5t19.5 -45t-19.5 -45t-46.5 -18.5q-25 0 -43 15l-138 -133z" />
    <glyph glyph-name="guanliwenzhang" unicode="&#xe678;" 
d="M804 325q-50 0 -86 -36t-36 -86t36 -85.5t86 -35.5t85.5 35.5t35.5 85.5t-35.5 86t-85.5 36zM802 158v0q-19 0 -32.5 13.5t-13.5 32.5t13.5 32.5t32.5 13.5v0q19 0 32.5 -13.5t13.5 -32.5t-13.5 -32.5t-32.5 -13.5zM1019 226q0 13 -10 16l-29 7q-7 31 -19 51l13 23
q6 11 -3 20l-29 30q-5 5 -13 5q-4 0 -8 -2l-23 -13q-23 14 -50 20l-7 21q-2 5 -6.5 9.5t-10.5 4.5l-41 -1q-14 0 -17 -13l-8 -24q-29 -7 -48 -19l-25 14q-3 2 -8 2v0q-8 0 -12 -5l-30 -29q-9 -9 -3 -21l14 -24q-13 -23 -20 -48l-25 -8q-6 -1 -11.5 -6t-5.5 -11l1 -41
q0 -5 5 -10t11 -7l23 -8q5 -21 21 -47l-13 -25q-7 -11 3 -21l29 -29q5 -5 13 -5q5 0 8 2l25 13q22 -14 48 -20l8 -25q1 -6 6 -11.5t10 -5.5h42q5 0 10 5.5t7 11.5l7 22q23 5 50 21l23 -12q3 -2 8 -2q8 0 13 5l29 30q10 9 3 21l-12 22q14 24 21 51l26 7q11 3 11 17zM804 75
q-53 0 -90.5 37.5t-37.5 90.5t37.5 90.5t90.5 37.5t90.5 -37.5t37.5 -90.5t-37.5 -90.5t-90.5 -37.5zM462 802q-10 2 -21 2q-20 0 -37 -10v0h75q-3 0 -9 3.5t-8 4.5zM593 143q-13 4 -23 15.5t-10 25.5l-1 44q0 9 1 9h-162v0q-8 0 -8 7.5t8 7.5v0h169q4 0 13 7.5t13 8.5l13 3
q4 13 11 27l-7 13q-5 9 -5 20q0 18 12 30l30 29q12 12 29 12v0q11 0 21 -5l11 -7q17 8 25 11l-4 11q9 30 28 30v1l67 5v0q13 0 24.5 -10t16.5 -23l-2 -5q1 3 -1 4v1v275q0 33 -19.5 61t-49.5 28h-289q-2 0 -5 -1l-1 1h-107q-16 0 -28.5 -18.5t-12.5 -38.5v-606
q0 -19 17 -31.5t39 -12.5h201q-2 0 -2.5 5t1 12.5t3.5 11.5l7 12q-9 16 -13 27zM398 614h380v0q8 0 8 -7.5t-8 -7.5v0h-380v0q-8 0 -8 7.5t8 7.5v0zM398 478h289v0q8 0 8 -7.5t-8 -7.5v0h-289v0q-8 0 -8 7.5t8 7.5v0zM398 373h197h1q8 0 8 -7.5t-8 -7.5h-1h-197v0
q-8 0 -8 7.5t8 7.5v0zM335 116v606q0 18 11 40l-303 -174q-27 -15 -35.5 -45.5t7.5 -57.5l278 -486q6 -11 19.5 -21.5t26.5 -13.5q10 -3 20 -3q15 0 38 13l139 82h-130q-29 0 -50 17t-21 43zM309 254l-37 -22q-2 -1 -4 -1q-4 0 -6 4q-1 2 -1 4q0 4 4 7l37 21q2 1 4 1
q7 0 7 -8q0 -4 -4 -6zM310 385l-94 -54q-2 -1 -4 -1q-4 0 -6 4q-1 2 -1 4q0 4 3 6l95 54q1 1 3 1q8 0 8 -8q0 -4 -4 -6zM312 541l-163 -94q-1 -1 -3 -1q-5 0 -7 4q-1 2 -1 4q0 4 4 7l163 93q2 1 4 1q7 0 7 -8q0 -4 -4 -6z" />
    <glyph glyph-name="kehuxiaoji" unicode="&#xe679;" 
d="M567 351q26 4 45 23l398 398q-4 49 -40 83.5t-86 35.5l-395 -394q-19 -19 -23 -45q-4 -25 -9 -52l61 -58zM636 352q-11 -11 -29.5 -20.5t-33.5 -11.5l-114 -20q-4 -1 -8 -1q-16 0 -26 10h-1v1q-13 13 -9 33l20 114q6 36 32 62l372 372h-705q-53 0 -91 -38t-38 -91v-747
q0 -54 38 -93.5t91 -39.5h747q54 0 93.5 39.5t39.5 93.5v713z" />
    <glyph glyph-name="kehuxunpan" unicode="&#xe67a;" 
d="M433 419q54 22 88 71t34 109q0 80 -57 137t-137 57t-137 -57t-57 -137q0 -60 34 -109t88 -71q-121 -25 -200 -121.5t-79 -222.5q0 -19 9 -33t18 -19.5t25 -12.5l1 -1q63 -22 146.5 -32t147.5 -10q65 0 152.5 11t150.5 33q52 20 52 64q0 126 -79.5 222.5t-199.5 121.5z
M972 786h-273q-22 0 -31.5 -19t-9.5 -45v-58q0 -26 -17 -50q-2 -4 -47 -39q-8 -7 -6 -15q3 -9 11 -11q28 -4 46 -8q0 -33 43 -33h281q23 0 36.5 14t13.5 37v163q0 25 -12.5 44.5t-34.5 19.5zM853 575h-120q-6 0 -10.5 4.5t-4.5 10.5t4.5 10.5t10.5 4.5h120q7 0 11 -4.5
t4 -10.5t-4 -10.5t-11 -4.5zM914 635h-181q-6 0 -10.5 4.5t-4.5 10.5t4.5 10.5t10.5 4.5h181q6 0 10.5 -4.5t4.5 -10.5t-4.5 -10.5t-10.5 -4.5zM959 695h-226q-6 0 -10.5 4.5t-4.5 10.5t4.5 10.5t10.5 4.5h226q6 0 10.5 -4.5t4.5 -10.5t-4.5 -10.5t-10.5 -4.5z" />
    <glyph glyph-name="huiyuanfuwu" unicode="&#xe67b;" 
d="M1022 786v0q-2 4 -7 6l-56 22q-3 2 -5 2h-265q-9 0 -13 -11l-214 -508l-213 493q-64 26 -66 26h-160q-7 0 -12 -9q-3 -4 -3 -8q0 -3 1 -6l315 -764l16 -40q6 -17 35 -17h228l55 9q2 0 4 1t3 3l266 666l88 55q3 2 3 8v72zM437 236l-235 554l36 -12l215 -499q1 0 1 -0.5
v-0.5zM922 662q-2 -1 -3 -3l-266 -664l-39 -6q7 11 18 38l262 654l68 42q7 4 7 12v56l39 -14v-61z" />
    <glyph glyph-name="lianxiren" unicode="&#xe67c;" horiz-adv-x="1025" 
d="M214 -126v0q-27 0 -47 19l-85 86q-12 12 -14 15q-32 44 -46 97q-2 8 -4 20.5t-4 47t1.5 71t17 89.5t37.5 105t67.5 115t103.5 122q69 69 142 117t137 69.5t111 30t89 8.5q55 0 88 -9q51 -14 94 -48q5 -3 18 -14q26 -22 64 -60l22 -22q20 -20 20 -47.5t-20 -46.5
l-149 -149q-19 -20 -46 -20h-1v0q-27 0 -47 20l-85 85q-13 13 -35.5 21t-40.5 6q-5 -1 -13.5 -2.5t-32.5 -8t-47 -16.5t-52.5 -29t-53.5 -43q-26 -26 -45.5 -59t-29 -58.5t-15 -52t-6.5 -36.5t-1 -15q-1 -18 8.5 -41t22.5 -37l71 -70q19 -20 19 -47t-19 -47l-147 -147
q-19 -19 -47 -19v0z" />
    <glyph glyph-name="lianxirenqunzu" unicode="&#xe67d;" 
d="M93 319h85q18 0 30.5 13.5t12.5 31.5t-12.5 31.5t-30.5 13.5h-85q-18 0 -30.5 -13.5t-12.5 -31.5t12.5 -31.5t30.5 -13.5zM93 635h85q18 0 30.5 13.5t12.5 31.5t-12.5 31.5t-30.5 13.5h-85q-18 0 -30.5 -13.5t-12.5 -31.5t12.5 -31.5t30.5 -13.5zM221 55q0 17 -12.5 27.5
t-30.5 10.5h-85q-18 0 -30.5 -10.5t-12.5 -27.5t12.5 -27t30.5 -10h85q18 0 30.5 10t12.5 27zM765 564q-14 14 -29 28q-1 1 -4 3l-4 3q-19 15 -42 21q-13 5 -40 5q-118 0 -223 -105q-37 -37 -61 -78t-32.5 -70.5t-10.5 -58.5t-0.5 -39.5t3.5 -17.5q4 -16 8 -24q5 -11 12 -21
l47 -48q4 -4 17 -4q10 0 17 7l70 70q7 7 7 17.5t-7 17.5l-34 33q-17 18 -16 42q0 8 1.5 20t13.5 40.5t33 48.5q18 19 43.5 31.5t36.5 14.5t18 3q24 3 41 -15l41 -40q7 -7 17.5 -7t17.5 7l70 71q7 7 7 17t-7 17zM876 891h-689q-24 0 -43 -15.5t-19 -41.5v-94h49h4.5h5.5
q21 0 37 -18.5t16 -41.5q0 -24 -19 -42t-44 -18h-49v-196h49q1 0 6 -0.5t7 -0.5q20 0 35 -18.5t15 -40.5q0 -24 -19 -42t-44 -18h-49v-193q56 1 59 0q22 -3 37.5 -17t15.5 -35q0 -24 -18.5 -40t-44.5 -16h-49v-40q0 -27 19 -54t43 -27h689q25 0 44 26.5t19 54.5v871
q0 18 -7.5 30.5t-19 17.5t-20 7t-16.5 2zM786 508l-70 -70q-11 -11 -27.5 -11t-27.5 11l-41 40q-12 13 -30 11l-15 -3t-33.5 -13.5t-40.5 -28.5q-19 -19 -30 -45t-12.5 -37t-1.5 -17q0 -18 13 -32l33 -33q11 -11 11 -27.5t-11 -27.5l-69 -69q-12 -12 -28 -12v0q-16 0 -27 12
l-41 40l-7 8q-16 22 -23 49q-2 6 -3.5 17t0 42t10.5 61.5t34 73.5t64 83q109 108 233 108q26 0 43 -4q25 -7 47 -24q3 -2 9 -7q16 -14 31 -29l10 -10q12 -12 12 -28t-12 -28z" />
    <glyph glyph-name="shangchengmoban" unicode="&#xe67e;" 
d="M1013 784q0 -30 -21.5 -51t-51.5 -21h-863q-31 0 -52 21t-21 51v35v0q0 31 21 52t52 21h863v0q30 0 51.5 -21t21.5 -52v-35zM531 -73q0 -18 -13 -31t-31 -13h-440q-18 0 -30.5 13t-12.5 31v681v0q0 18 12.5 30.5t30.5 12.5h440q18 0 31 -12.5t13 -30.5v-681zM1013 -73
q0 -18 -13 -31t-31 -13h-319q-18 0 -31 13t-13 31v681v0q0 18 13 30.5t31 12.5h319q18 0 31 -12.5t13 -30.5v-681z" />
    <glyph glyph-name="lianxiwomen" unicode="&#xe67f;" 
d="M182 139h-124q-50 0 -50 48v245q0 26 13 40t37 14h124q27 0 46.5 -15t19.5 -39v-245q0 -17 -16.5 -32.5t-49.5 -15.5zM966 139h-129q-21 0 -33.5 9.5t-12.5 38.5v245q0 54 46 54h129q50 0 50 -54v-245q0 -48 -50 -48zM60 467v0q-6 0 -10 4.5t-4 10.5v1q12 113 76 203
t166.5 140.5t224 50.5t224 -50.5t166.5 -140.5t76 -203v-1q0 -6 -4 -10.5t-10 -4.5t-10 4t-5 9q-17 160 -141 264t-297 104q-176 0 -298 -103t-140 -265q0 -5 -4.5 -9t-9.5 -4zM858 471q-6 0 -10 3.5t-4 9.5q-6 75 -53.5 140t-121.5 103.5t-156.5 38.5t-157 -38.5
t-121.5 -103.5t-53 -140q0 -6 -4.5 -9.5t-9.5 -3.5q-6 0 -10.5 4t-4.5 10v1q7 82 58 153.5t132 113.5t170.5 42t170.5 -42t132 -113.5t57 -153.5v-1q0 -6 -4 -10t-10 -4zM607 -88v0q-6 0 -10 4t-4 10q0 12 11 14q87 19 164.5 78t95.5 134q3 11 14 11q6 0 10 -4.5t4 -10.5v-3
q-20 -83 -104 -147.5t-177 -85.5h-4zM604 -112q-16 0 -27 11t-11 27t11 27.5t27 11.5t27 -11.5t11 -27.5t-11 -27t-27 -11zM604 -64q-9 -1 -9 -10t9 -9t9 9t-9 10z" />
    <glyph glyph-name="qiyejianjie" unicode="&#xe680;" 
d="M396 776q-105 0 -194.5 -52t-141.5 -141.5t-52 -194.5t52 -194t141.5 -141t194.5 -52t194 52t141 141t52 194t-52 194.5t-141 141.5t-194 52zM579 228h-373q-6 0 -10 4.5t-4 10.5t4 11t10 5h100v96q0 6 4.5 10t10.5 4t10.5 -4t4.5 -10v-96h76v196q0 6 4.5 10t10.5 4
t10.5 -4t4.5 -10v-76h80q6 0 10 -4.5t4 -10.5t-4 -10.5t-10 -4.5h-80v-90h137q6 0 10 -5t4 -11t-4 -10.5t-10 -4.5zM595 408q-5 -7 -13 -7q-4 0 -7 2q-55 32 -95 69q-9 7 -29 28l-20 20q-17 17 -32 35q-20 -23 -42 -45q-27 -27 -43 -40q-7 -6 -16.5 -13.5l-19 -15
t-19.5 -15.5t-18.5 -14.5t-15 -11.5t-10.5 -8l-4 -3q-4 -3 -9 -3q-6 0 -10.5 4t-4.5 10q0 8 7 12q63 48 102 80q15 12 41 38q30 30 58 66q5 6 12 6q6 0 10 -4t4 -10q0 -5 -3 -9q0 -1 -1 -1q17 -21 34 -38l20 -19q20 -21 28 -28q37 -34 90 -65q8 -4 8 -12q0 -4 -2 -8z
M895 725h-187q-6 0 -10 4.5t-4 10.5t4 10.5t10 4.5h187q6 0 10 -4.5t4 -10.5t-4 -10.5t-10 -4.5zM1010 379h-158q-6 0 -10.5 4.5t-4.5 10.5t4.5 10.5t10.5 4.5h158q6 0 10 -4.5t4 -10.5t-4 -10.5t-10 -4.5zM981 560h-158q-6 0 -10 4.5t-4 10.5t4 10.5t10 4.5h158
q6 0 10 -4.5t4 -10.5t-4 -10.5t-10 -4.5zM895 33h-187q-6 0 -10 4.5t-4 10.5t4 10.5t10 4.5h187q6 0 10 -4.5t4 -10.5t-4 -10.5t-10 -4.5zM981 213h-158q-6 0 -10 4.5t-4 10.5t4 10.5t10 4.5h158q6 0 10 -4.5t4 -10.5t-4 -10.5t-10 -4.5z" />
    <glyph glyph-name="qiyeshangbiao" unicode="&#xe681;" 
d="M510.5 892q-103.5 0 -198 -40.5t-163 -108.5t-109 -162.5t-40.5 -198t40.5 -198t109 -163t163 -109t198 -40.5t198 40.5t162.5 109t108.5 163t40.5 198t-40.5 198t-108.5 162.5t-162.5 108.5t-198 40.5zM683 139q-5 -4 -11 -4t-10 4l-244 239q-4 4 -4 10t4 10q3 4 14 1
q1 0 3.5 -1t3.5 -1h124q36 0 65 34t29 75q0 40 -30 68t-67 30q-1 0 -3 1.5t-3 1.5h-198v-465q0 -6 -4.5 -10.5t-10.5 -4.5t-10.5 4.5t-4.5 10.5v481q0 5 9.5 9.5t16.5 4.5h211q4 0 8 -2q48 -7 81.5 -45t33.5 -85q0 -53 -37.5 -95.5t-85.5 -42.5h-100l219 -211q9 -9 1 -17z
" />
    <glyph glyph-name="shangdian" unicode="&#xe682;" 
d="M177 460q-64 0 -113.5 37.5t-60.5 94.5v2q-3 33 12 54l100 135q19 27 57.5 45t75.5 18h529q36 0 74.5 -18t57.5 -45l101 -134q14 -20 14 -52l-1 -3q-11 -57 -60.5 -95.5t-113.5 -38.5q-55 0 -99.5 33.5t-65.5 81.5h-8q-20 -48 -65 -82t-100 -34t-99.5 34t-64.5 82h-5
q-20 -48 -65 -81.5t-100 -33.5zM849 492zM848 425q-50 0 -92 22.5t-71 58.5h-15q-73 -87 -159 -87q-85 0 -159 87h-11q-29 -36 -71.5 -58.5t-92.5 -22.5q-40 0 -87 19v-420q0 -43 24.5 -70t63.5 -27h132q31 0 57.5 17t26.5 44l-1 206q5 49 41.5 82.5t85.5 33.5
q53 0 92.5 -38t39.5 -89v-10l-1 -172q0 -30 19 -52t46 -22h130q43 0 72.5 28.5t29.5 68.5v427q-47 -26 -100 -26z" />
    <glyph glyph-name="sousuo" unicode="&#xe683;" 
d="M999 69l-232 232q58 115 37.5 244.5t-111.5 221.5q-57 57 -130.5 87.5t-154.5 30.5t-154.5 -30.5t-130.5 -87.5q-77 -77 -104.5 -181t0 -207.5t104.5 -180.5q57 -57 130.5 -87.5t154.5 -30.5v0q46 0 106.5 16.5t100.5 40.5l226 -226q9 -9 24.5 -15.5t28.5 -6.5
q29 0 48 20l59 58q21 21 20 50.5t-22 51.5zM611.5 278.5q-84.5 -84.5 -203.5 -84.5t-203.5 84.5t-84.5 204t84.5 203.5t203.5 84t203.5 -84t84.5 -203.5t-84.5 -204z" />
    <glyph glyph-name="guanlikehu" unicode="&#xe684;" 
d="M641 -29l-24 -13q-9 -5 -20.5 -3t-19.5 9l-35 36q-8 7 -9.5 18.5t2.5 20.5l13 24q-15 26 -22 49l-21 7q-10 3 -19 12t-9 20v51q0 11 9 20t19 12l25 7q14 48 45 86l-39 -13q-5 9 -3 20.5t9 18.5l36 36q7 7 18.5 8.5t20.5 -3.5l24 -14q4 3 9 5q-87 61 -194 70
q94 18 141.5 72t47.5 128q0 91 -65.5 156.5t-157 65.5t-157 -65.5t-65.5 -156.5q0 -70 39 -126t102 -81q-139 -29 -230 -139.5t-91 -254.5q0 -22 10.5 -38t20.5 -22.5t29 -14.5l1 -1q72 -25 168 -36.5t169 -11.5q127 0 256 26q-44 16 -78 47zM755 322q-61 0 -104 -43
t-43 -104t43 -104.5t104 -43.5t104.5 43.5t43.5 104.5t-43.5 104t-104.5 43zM753 120v0q-23 0 -39.5 16t-16.5 39.5t16.5 39.5t39.5 16v0q23 0 39.5 -16t16.5 -39.5t-16.5 -39.5t-39.5 -16zM1017 203q0 16 -12 19l-35 9q-9 37 -24 61l15 28q8 14 -3 25l-35 36q-6 6 -16 6
q-5 0 -9 -3l-28 -15q-43 26 -95 30l25 20q-2 6 -8 11t-12 5l-51 -1q-6 0 -12 -4.5t-8 -10.5l-9 -29q-36 -9 -59 -23l-30 17q-4 2 -10 2v0q-9 0 -15 -6l-36 -35q-11 -11 -3 -25l16 -30q-25 -43 -30 -94l-25 26q-7 -2 -13 -8t-6 -12v-51q0 -6 6.5 -12t12.5 -8l28 -10
q7 -26 26 -58l-16 -30q-8 -13 4 -25l36 -36q6 -6 15 -6q6 0 10 3l30 16q27 -17 59 -25l9 -30q2 -7 8 -13.5t12 -6.5h51q6 0 12 6.5t8 13.5l9 26q28 7 61 27l28 -15q4 -2 9 -2q10 0 16 6l36 36q11 11 3 25l-15 28q27 43 32 95l26 -25q13 4 13 20zM755.5 19q-64.5 0 -110 45.5
t-45.5 110t45.5 110t110 45.5t110 -45.5t45.5 -110t-45.5 -110t-110 -45.5z" />
    <glyph glyph-name="wodechanpin" unicode="&#xe685;" 
d="M502.5 513q-39.5 0 -67.5 10l-375 139q-36 13 -36 37t36 37l375 138q28 11 67.5 11t67.5 -11l376 -138q35 -13 35 -37t-35 -37l-376 -139q-28 -10 -67.5 -10zM423 -112q-14 0 -27 5l-329 125q-28 11 -47.5 40.5t-19.5 63.5v418q0 28 14 45t37 17q12 0 25 -5l334 -125
q30 -12 51 -42t21 -62v-419q0 -26 -17 -43.5t-42 -17.5zM591 -105h2q-51 0 -51 54v419q0 34 18.5 63.5t47.5 40.5l329 125q13 5 28 5q25 0 42 -17.5t17 -44.5v-418q0 -32 -21.5 -62.5t-51.5 -41.5l-333 -122q-4 -1 -27 -1z" />
    <glyph glyph-name="wodebiji" unicode="&#xe686;" 
d="M643 803v0q0 -18 -12.5 -30.5t-30.5 -12.5h-367q-17 0 -29.5 12.5t-12.5 30.5v51v0q0 17 12.5 29.5t29.5 12.5h367v0q18 0 30.5 -12.5t12.5 -29.5v-51zM612 867q0 6 -4 10t-10 4h-363v0q-6 0 -10 -4t-4 -10v-62q0 -6 4 -10t10 -4h363q6 0 10 4t4 10v62zM758 851h-116v-46
q0 -25 -12 -42.5t-34 -17.5h-367q-28 0 -48 15t-20 45v46h-79q-26 0 -41.5 -11.5t-15.5 -32.5v-874q0 -23 17 -42t40 -19h676q23 0 36.5 18.5t13.5 42.5v874q0 44 -50 44zM363 83h-239q-12 0 -20 7t-8 15.5t8 15.5t20 7h239q12 0 20 -7t8 -15.5t-8 -15.5t-20 -7zM462 173
h-338q-12 0 -20 7t-8 16t8 15.5t20 6.5h338q11 0 19.5 -6.5t8.5 -15.5t-8.5 -16t-19.5 -7zM546 279h-422q-12 0 -20 6.5t-8 15.5t8 16t20 7h422q12 0 20.5 -7t8.5 -16t-8.5 -15.5t-20.5 -6.5zM673 369h-549q-12 0 -20 7t-8 15.5t8 15.5t20 7h549q12 0 20 -7t8 -15.5
t-8 -15.5t-20 -7zM673 474h-549q-12 0 -20 7t-8 16t8 16t20 7h549q12 0 20 -7t8 -16t-8 -16t-20 -7zM673 580h-549q-28 0 -28 15t28 15h549q28 0 28 -15t-28 -15zM990 704l-31 62q-10 18 -24 18q-16 0 -25 -18l-30 -62q-12 -23 -12 -60v-726q0 -31 38 -31h57q41 0 41 31v726
q0 34 -14 60zM936 753l33 -62q1 -1 3 -4t3 -6.5l3 -10.5h-77q1 12 6 21z" />
    <glyph glyph-name="wodedingdan" unicode="&#xe687;" 
d="M706 94q-5 0 -5.5 -2.5t1.5 -9t2 -10.5v-183l198 205h-196zM900 788q0 35 -23.5 69.5t-56.5 34.5h-649q-32 0 -50.5 -33.5t-18.5 -70.5v-834q0 -29 15.5 -50t53.5 -21h518v189q0 20 3.5 28.5t13.5 8.5h194v679zM331 681h446q8 0 14.5 -6.5t6.5 -15.5t-6.5 -16t-14.5 -7
h-446q-8 0 -14.5 7t-6.5 16t6.5 15.5t14.5 6.5zM331 486h446q8 0 14.5 -7t6.5 -16t-6.5 -16t-14.5 -7h-446q-8 0 -14.5 7t-6.5 16t6.5 16t14.5 7zM331 305h446q8 0 14.5 -7t6.5 -16t-6.5 -15.5t-14.5 -6.5h-446q-8 0 -14.5 6.5t-6.5 15.5t6.5 16t14.5 7zM298 108l-30 -30
q-6 -6 -15 -6t-15 6l-16 15q-6 7 -6 16t6 15t15.5 6t15.5 -6v0l14 14q6 6 15.5 6t15.5 -6t6 -15t-6 -15zM298 290l-30 -30q-6 -6 -15 -6t-15 6l-16 15q-6 7 -6 15.5t6 15.5q6 6 15.5 6t15.5 -6v0l14 14q6 6 15.5 6t15.5 -6t6 -15t-6 -15zM298 472l-30 -30q-6 -6 -15 -6
t-15 6l-16 15q-6 6 -6 15t6 16q6 6 15.5 6t15.5 -6v0l14 14q6 6 15.5 6t15.5 -6t6 -15t-6 -15zM298 653l-30 -29q-6 -6 -15 -6t-15 6l-16 15q-6 6 -6 15t6 16q6 6 15.5 6t15.5 -6v0l14 14q6 6 15.5 6t15.5 -6t6 -15t-6 -16zM633 94h-302q-8 0 -14.5 7t-6.5 16t6.5 15.5
t14.5 6.5h302q9 0 15.5 -6.5t6.5 -15.5t-6.5 -16t-15.5 -7z" />
    <glyph glyph-name="shenqinggexingyuming" unicode="&#xe688;" 
d="M749 98q37 0 73 4q3 36 3 72.5t-3 72.5q-36 3 -72.5 3t-72.5 -3q-4 -36 -4 -72.5t4 -72.5q36 -4 72 -4v0zM491 174.5q0 -19.5 42.5 -39.5t113.5 -30q-4 35 -4 69.5t4 69.5q-71 -10 -113.5 -30t-42.5 -39.5zM849 274q126 -17 170 -61q-13 90 -77 154.5t-154 76.5
q44 -44 61 -170zM749.5 69q-34.5 0 -69.5 3q10 -71 30 -113.5t39 -42.5t39.5 42.5t29.5 113.5q-34 -3 -68.5 -3zM818 277q-9 70 -29.5 113t-39.5 43t-39 -43t-30 -113q34 3 69 3t69 -3zM788 -96q90 13 154 77.5t77 154.5q-44 -45 -170 -61q-17 -127 -61 -171zM479 136
q13 -90 77.5 -154.5t154.5 -77.5q-45 44 -61 171q-127 16 -171 61zM711 444q-90 -12 -154.5 -76.5t-77.5 -154.5q44 44 171 61q16 126 61 170zM1007 174.5q0 19.5 -42.5 39.5t-112.5 30q3 -35 3 -69.5t-3 -69.5q70 10 112.5 30t42.5 39.5zM434 284v0v0zM686 640v0v0z
M568 447v0v0zM449 174q0 125 88 213t212 88q24 0 52 -5q1 0 1 7v331q0 36 -20.5 60t-54.5 24h-652q-35 0 -53 -25t-18 -59v-850q0 -37 21.5 -56t49.5 -19h602q-99 23 -163.5 104.5t-64.5 186.5zM152 651h534q15 0 15 -13t-12 -15l-1 -1t-2 -1h-534l-1 1.5t-2 1.5
q-12 2 -12 13q0 6 4.5 10t10.5 4zM152 456h416q14 0 14 -12q0 -14 -11 -16q-1 0 -2 -1.5l-1 -1.5h-416l-1 2t-2 2q-12 3 -12 13q0 14 15 14zM440 109h-3q0 -4 -0.5 -7t-2 -4t-2.5 -1.5t-4 -1t-4 -0.5q-2 -1 -5 -1h-267l-1 -0.5t-2 -0.5q-12 3 -12 15q0 7 4.5 11.5t10.5 4.5
h267q7 0 14 -5.5t7 -10.5v-1v2zM437 273q0 -1 -1 0.5t-2 1.5h-282l-1 -1.5t-2 -0.5q-12 2 -12 15q0 7 4.5 12t10.5 5h282q6 0 10.5 -5t4.5 -12q0 -13 -12 -15z" />
    <glyph glyph-name="wodekehu" unicode="&#xe689;" 
d="M741 -48l-6 3q-80 42 -142.5 106t-99.5 141v2q-25 55 -25 89q0 65 46 111t111 46q72 0 119 -55q19 23 54 39t65 16v0q65 0 110.5 -46t45.5 -111q0 -31 -22 -80l-4 -10q-39 -79 -102 -143t-143 -105zM467 190l-1 2q-27 60 -27 101q0 66 42 117q-21 8 -43 12q56 22 91 72.5
t35 113.5q0 82 -58.5 141t-141 59t-141 -59t-58.5 -141q0 -62 35 -113t91 -73q-124 -26 -206 -125t-82 -229q0 -20 9.5 -34.5t18.5 -20t25 -13.5h2q64 -23 150.5 -33t152.5 -10q143 0 269 32q-107 84 -163 201z" />
    <glyph glyph-name="xitongxiaoxi" unicode="&#xe68a;" 
d="M521 585zM477 585v0q0 -18 13 -31t31 -13t30.5 13t12.5 31v0v0q0 18 -12.5 30.5t-30.5 12.5t-31 -12.5t-13 -30.5v0zM556 191q-4 4 -4 15v218q0 18 -11 30.5t-26.5 12.5t-26.5 -12.5t-11 -30.5v-232q0 -18 12 -31t27 -13q33 0 61.5 21t36.5 53q-3 -3 -12.5 -11
t-17.5 -14.5t-13 -7.5q-8 -3 -15 2zM514.5 896q-103.5 0 -197 -40.5t-161.5 -108.5t-108.5 -161.5t-40.5 -197t40.5 -197.5t108.5 -162t161.5 -108t197 -40t197.5 40t162 108t108 162t40 197.5t-40 197t-108 161.5t-162 108.5t-197.5 40.5zM521 657q30 0 51 -21t21 -51
t-21 -51.5t-51 -21.5t-51.5 21.5t-21.5 51.5t21.5 51t51.5 21zM635 216q-12 -47 -42.5 -72t-76.5 -25q-28 0 -48.5 22t-20.5 51v232q0 30 20 51t47.5 21t47.5 -21t20 -51v-193l3 -2q3 3 14.5 12.5t17.5 15.5q6 7 14 4q9 -4 9 -14q-1 -13 -5 -31z" />
    <glyph glyph-name="chanpinguanli" unicode="&#xe68b;" 
d="M859 679q32 12 32 34.5t-32 34.5l-340 125q-25 9 -60.5 9t-60.5 -9l-340 -125q-32 -12 -32 -34.5t32 -34.5l340 -125q25 -10 60 -10t61 10zM377 510l-304 114q-12 4 -22 4q-21 0 -33.5 -15t-12.5 -41v-379q0 -30 17.5 -57t43.5 -36l300 -114q12 -5 22 -5q23 0 38.5 16
t15.5 41v379q0 28 -19 55.5t-46 37.5zM571 59q-9 3 -18 12t-9 20v44q0 11 9 20t19 12l19 6q6 20 16 39l-10 20q-5 9 -3.5 20t9.5 19l31 31q7 7 18 8.5t21 -3.5l19 -11q16 8 40 15l6 16q3 11 12 18t19 7l47 1q20 0 29 -23l6 -14q22 -7 42 -18l14 10q3 1 7 2t6.5 1.5t3.5 -0.5
v261q0 33 -20 47q-24 16 -54 5l-300 -114q-27 -10 -45 -37t-18 -56v-379q0 -33 23 -49q11 -8 27 -8q11 0 24 5l40 18l5 9q-12 21 -18 40zM792.5 235q-51.5 0 -87.5 -36.5t-36 -87.5t36 -87.5t87.5 -36.5t87.5 36.5t36 87.5t-36 87.5t-87.5 36.5zM791 65h-1q-20 0 -33.5 14
t-13.5 33t13.5 33t33.5 14h1q19 -1 32 -14.5t13 -32.5t-13 -32.5t-32 -14.5zM1022 136q0 14 -10 17l-31 8q-8 32 -21 53l14 25q7 12 -3 22l-31 31q-5 5 -14 5q-5 0 -8 -2l-25 -13q-25 15 -53 21l-8 22q-2 6 -7 10.5t-11 4.5l-44 -1q-6 0 -11.5 -4t-6.5 -10l-8 -25
q-32 -8 -52 -20l-26 15q-4 2 -9 2v0q-8 0 -13 -5l-31 -31q-10 -10 -4 -23l15 -26q-14 -24 -21 -51l-27 -8q-6 -2 -12 -7.5t-6 -10.5l1 -44q0 -6 5.5 -11.5t11.5 -6.5l24 -9q6 -23 23 -51l-14 -26q-7 -12 3 -22l32 -31q5 -6 13 -6q5 0 9 2l26 15q24 -15 52 -22l8 -26
q2 -7 7 -12.5t10 -5.5h45q6 0 11 5.5t7 12.5l8 23q24 5 53 22l25 -12q3 -2 8 -2q8 0 14 5l31 32q10 10 3 22l-13 24q15 25 23 54l28 8q11 3 11 18zM792.5 -26q-56.5 0 -96.5 40.5t-40 97t40 96.5t96.5 40t96.5 -40t40 -96.5t-40 -97t-96.5 -40.5z" />
    <glyph glyph-name="fabuguanli" unicode="&#xe68c;" 
d="M790 377q-52 0 -89 -37t-37 -89.5t37 -89.5t89 -37t89 37t37 89.5t-37 89.5t-89 37zM788 204q-20 0 -34 14t-14 33.5t14 33.5t34 14t34 -14t14 -33.5t-14 -33.5t-34 -14zM1014 275q0 13 -11 16l-30 8q-8 31 -20 52l13 24q7 12 -3 21l-30 31q-5 5 -13 5q-5 0 -9 -2
l-23 -13q-25 14 -52 21l-8 21q-1 6 -6.5 10t-10.5 4h-43q-14 0 -18 -14l-8 -25q-30 -7 -50 -19l-25 14q-4 2 -9 2v0q-8 0 -13 -5l-30 -30q-10 -10 -3 -22l14 -25q-14 -23 -21 -50l-26 -8q-6 -2 -11.5 -7t-5.5 -10v-43q0 -6 5.5 -11t11.5 -7l24 -8q5 -22 21 -50l-13 -25
q-7 -12 3 -22l31 -30q5 -5 13 -5q5 0 9 2l25 13q23 -14 50 -21l8 -25q2 -6 7 -12t10 -6h44q5 0 10 6t7 12l8 22q24 6 52 22l23 -12q4 -2 8 -2q9 0 14 5l31 31q9 10 3 22l-13 23q15 25 22 53l27 7q11 3 11 18v44zM790 117q-55 0 -94 39t-39 94.5t39 94.5t94 39t94 -39t39 -94
t-39 -94.5t-94 -39.5zM625 57l-49 34q-18 12 -25 12h-89v82l1 2.5t2 4l1 1.5h108l-3 -2q-14 5 -24.5 16t-10.5 25v42q0 15 10.5 26.5t24.5 15.5l13 4q5 15 12 29l-7 13q-7 13 -5 27.5t12 25.5l31 30q12 12 31 12q11 0 22 -5l12 -7q14 6 29 11l1 11q2 6 8.5 13t12 11.5
t5.5 5.5v193q0 17 -12 31t-28 14h-662q-16 0 -26 -13.5t-10 -31.5v-466q0 -31 36 -31h279q-1 0 -0.5 -1.5t1 -4l0.5 -2.5v-82h-100q-7 0 -24 -11l-49 -33q-8 -5 -4 -12q2 -4 14 -4h452q12 0 14 4q3 5 -4 10zM394 315q-52 0 -93.5 31.5t-55.5 81.5q-18 62 14 118t93 74
q21 5 43 6q50 0 91 -30t56 -78q1 -2 1 -4q0 -3 -2 -6q-2 -7 -9 -9l-150 -43h-4q-10 0 -12 10q-1 1 -1 3q0 3 2 6q2 5 8 7l138 39q-15 35 -47.5 56.5t-70.5 21.5q-18 0 -36 -4q-51 -15 -77.5 -61.5t-11.5 -98.5q11 -39 47.5 -66.5t76.5 -27.5v0q18 0 35 5q36 9 63.5 42
t30.5 69q1 12 13 12v0q6 0 10 -4.5t3 -9.5q-4 -44 -37 -83.5t-76 -51.5q-20 -5 -42 -5z" />
    <glyph glyph-name="tianjiakehu" unicode="&#xe68d;" 
d="M462 416q58 23 94 75t36 116q0 85 -60.5 145t-145 60t-145 -60t-60.5 -145q0 -64 36 -116t94 -75q-128 -26 -212 -128t-84 -236q0 -20 10 -35t19 -20.5t26 -13.5l1 -1q67 -23 155.5 -33.5t155.5 -10.5q69 0 161.5 11.5t159.5 34.5q55 21 55 68q0 134 -84 236t-212 128z
M1009 675h-151v151q0 6 -4 10.5t-10.5 4.5t-11 -4.5t-4.5 -10.5v-151h-150q-7 0 -11 -4.5t-4 -10.5t4 -10.5t11 -4.5h150v-151q0 -6 4.5 -10.5t11 -4.5t10.5 4.5t4 10.5v151h151q6 0 10.5 4.5t4.5 10.5t-4.5 10.5t-10.5 4.5z" />
    <glyph glyph-name="pencilsquare" unicode="&#xe600;" 
d="M735 343l71 43v-301q0 -15 -10.5 -25.5t-24.5 -10.5h-576q-15 0 -25 10.5t-10 25.5v576q0 14 10 24.5t25 10.5h576q14 0 24.5 -10.5t10.5 -24.5v-45l-71 -43v52h-505v-505h505v223zM419 244q-4 -3 -9 -3q-7 0 -11.5 5t-4.5 11q0 9 8 14l513 316l-34 55l-522 -322
q-8 -5 -12 -13l-41 -81q-3 -7 -3 -15q0 -13 9.5 -22.5t22.5 -9.5h91q9 0 17 4l522 322l-33 55zM1019 576l-50 82q-10 15 -28 15q-9 0 -17 -5l-21 -13l85 -136l21 12q11 7 14 20t-4 25z" />
    <glyph glyph-name="openfolderminus" unicode="&#xe601;" 
d="M707 571h-233q-5 27 -28 46t-50 19h-171v0q-33 0 -56 -23.5t-23 -55.5v-1v-358q0 -33 23 -56.5t56 -23.5h482v0q33 0 56.5 23.5t23.5 56.5v294v0q0 33 -23.5 56t-56.5 23v0zM721 313q0 -10 -7 -17.5t-18 -7.5h-192q-10 0 -17 7.5t-7 17.5v40q0 11 7 18t17 7h192
q11 0 18 -7t7 -18v-40zM857 563h-61q21 -25 21 -56v-333q0 -1 -0.5 -2.5t-0.5 -3v-2.5q18 18 26 39l64 282q11 32 -3 54t-46 22z" />
    <glyph glyph-name="usb" unicode="&#xe602;" 
d="M678 666h-11v79q0 22 -15 37t-36 15h-151q-21 0 -36 -15t-15 -37v-79h-11q-21 0 -36 -15t-15 -36v-592q0 -22 15 -37t36 -15h275v0q21 0 36 15t15 37v592q0 21 -15 36t-36 15zM524 694h-48v48h48v-48zM605 694h-47v48h47v-48z" />
    <glyph glyph-name="redo" unicode="&#xe603;" 
d="M937 353l-138 -138q-18 -18 -43.5 -18t-43.5 18l-138 138q-18 18 -18 43.5t18 43.5t43.5 18t43.5 -18l37 -37q-7 87 -71.5 146.5t-152.5 59.5q-93 0 -159 -66t-66 -159t66 -159t159 -66q25 0 43 -18t18 -43.5t-18 -43.5t-43 -18q-94 0 -174.5 46.5t-127 127t-46.5 174.5
t46.5 174.5t127 127t174.5 46.5q137 0 237 -93t110 -228l29 29q18 18 43.5 18t43.5 -18t18 -43.5t-18 -43.5z" />
    <glyph glyph-name="circlearrows" unicode="&#xe604;" 
d="M972 404l-106 -131q-6 -8 -18 -13.5t-22 -5.5q-18 0 -32 11l-131 106q-18 15 -18 39q0 21 15 36t37 15q17 0 31 -10l38 -32q-7 51 -45.5 102t-85.5 72q-46 21 -96 21q-46 0 -99 -25.5t-82 -62.5q-6 -8 -18 -13.5t-22 -5.5q-21 0 -36 15t-15 36q0 18 11 32
q41 52 117.5 89.5t143.5 37.5q30 0 71 -9t68 -22q67 -30 122.5 -103t66.5 -146l25 31q15 19 39 19q22 0 37 -15t15 -36q0 -18 -11 -32zM791 250q-13 11 -31 11q-11 0 -22.5 -5.5t-17.5 -13.5q-29 -37 -82 -62.5t-99 -25.5q-50 0 -96 21q-47 21 -85 71.5t-46 100.5l41 -33
q14 -11 32 -11q21 0 36 15t15 36q0 24 -18 39l-131 106q-14 11 -32 11h-6q-21 -2 -34 -19l-105 -130q-11 -14 -11 -31q0 -22 15 -37t36 -15q24 0 39 18l23 28q13 -70 68 -141t120 -101q27 -13 68 -22t71 -9q75 0 144 33t117 94q11 14 11 32q0 10 -5.5 22t-14.5 18z" />
  </font>
</defs>
</svg>
