# 3ds Max Wavefront OBJ Exporter v0.97b - (c)2007 guruware
# 创建的文件:27.04.2017 22:24:24

mtllib chuan.mtl

#
# object Line001
#

v  -47.6905 -63.7413 -0.0000
v  -47.6905 -79.4457 -0.0000
v  -47.6905 -79.4457 2.0000
v  -47.6905 -63.7413 2.0000
v  54.1570 -79.4457 -0.0000
v  54.1570 -79.4457 2.0000
v  54.1570 -91.4550 -0.0000
v  54.1570 -91.4550 2.0000
v  181.6397 -91.4550 -0.0000
v  181.6397 -91.4550 2.0000
v  187.1824 -69.2841 -0.0000
v  187.1824 -69.2841 2.0000
v  187.1824 -32.5635 0.0000
v  187.1824 -32.5635 2.0000
v  181.6397 -10.1617 0.0000
v  181.6397 -10.1617 2.0000
v  53.6951 -10.1617 0.0000
v  53.6951 -10.1617 2.0000
v  53.6951 -22.8637 0.0000
v  53.6951 -22.8637 2.0000
v  -145.6120 -22.8637 0.0000
v  -145.6120 -22.8637 2.0000
v  -145.6120 -26.0970 0.0000
v  -145.6120 -26.0970 2.0000
v  -181.1778 -26.0970 0.0000
v  -181.1778 -26.0970 2.0000
v  -181.1778 -63.7413 -0.0000
v  -181.1778 -63.7413 2.0000
# 28 vertices

vn -1.0000 0.0000 -0.0000
vn 0.0000 -1.0000 -0.0000
vn 0.9701 -0.2425 -0.0000
vn 1.0000 0.0000 -0.0000
vn 0.9707 0.2402 0.0000
vn 0.0000 1.0000 0.0000
vn 0.0000 0.0000 -1.0000
vn 0.0000 -0.0000 1.0000
# 8 vertex normals

g Line001
usemtl wire_214229166
s 1
f 1//1 2//1 3//1 4//1 
s 4
f 2//2 5//2 6//2 3//2 
s 2
f 5//1 7//1 8//1 6//1 
s 4
f 7//2 9//2 10//2 8//2 
s 2
f 9//3 11//3 12//3 10//3 
s 4
f 11//4 13//4 14//4 12//4 
s 2
f 13//5 15//5 16//5 14//5 
s 4
f 15//6 17//6 18//6 16//6 
s 2
f 17//1 19//1 20//1 18//1 
s 4
f 19//6 21//6 22//6 20//6 
s 2
f 21//1 23//1 24//1 22//1 
s 4
f 23//6 25//6 26//6 24//6 
s 2
f 25//1 27//1 28//1 26//1 
s 4
f 27//2 1//2 4//2 28//2 
s 16
f 25//7 23//7 1//7 27//7 
f 19//7 1//7 23//7 21//7 
f 15//7 5//7 19//7 17//7 
f 5//7 15//7 9//7 7//7 
f 1//7 19//7 5//7 2//7 
f 13//7 11//7 9//7 15//7 
f 26//8 28//8 4//8 24//8 
f 20//8 22//8 24//8 4//8 
f 16//8 18//8 20//8 6//8 
f 6//8 8//8 10//8 16//8 
f 4//8 3//8 6//8 20//8 
f 14//8 16//8 10//8 12//8 
# 26 polygons

#
# object Line002
#

v  -3.3487 -24.4804 2.0000
v  -3.3487 -47.1132 2.0000
v  -3.3487 -47.1132 4.0000
v  -3.3487 -24.4804 4.0000
v  53.6951 -47.1132 2.0000
v  53.6951 -47.1132 4.0000
v  53.6951 -24.4452 2.0000
v  53.6951 -24.4452 4.0000
# 8 vertices

vn -1.0000 0.0000 -0.0000
vn 0.0000 -1.0000 -0.0000
vn 1.0000 0.0000 -0.0000
vn -0.0006 1.0000 0.0000
vn -0.0000 0.0000 -1.0000
vn 0.0000 0.0000 -1.0000
vn 0.0000 -0.0000 1.0000
# 7 vertex normals

g Line002
usemtl wire_177028149
s 1
f 29//9 30//9 31//9 32//9 
s 4
f 30//10 33//10 34//10 31//10 
s 2
f 33//11 35//11 36//11 34//11 
s 4
f 35//12 29//12 32//12 36//12 
s 16
f 33//13 30//14 29//13 35//13 
f 34//15 36//15 32//15 31//15 
# 6 polygons

