# 3ds Max Wavefront OBJ Exporter v0.97b - (c)2007 guruware
# 创建的文件:28.04.2017 19:39:25

mtllib ship2.mtl

#
# object a_floor
#

v  -134.2956 21.0162 -0.0000
v  -134.2956 22.8637 -0.0000
v  -134.2956 22.8637 2.0000
v  -134.2956 21.0162 2.0000
v  -110.2771 22.8637 -0.0000
v  -110.2771 22.8637 2.0000
v  -110.2771 20.0924 -0.0000
v  -110.2771 20.0924 2.0000
v  -63.1640 20.0924 -0.0000
v  -63.1640 20.0924 2.0000
v  -63.1640 2.0785 -0.0000
v  -63.1640 2.0785 2.0000
v  169.8614 2.0785 -0.0000
v  169.8614 2.0785 2.0000
v  175.4042 23.7875 -0.0000
v  175.4042 23.7875 2.0000
v  175.4042 60.9700 0.0000
v  175.4042 60.9700 2.0000
v  170.3233 83.3718 0.0000
v  170.3233 83.3718 2.0000
v  -145.8430 83.3718 0.0000
v  -145.8430 83.3718 2.0000
v  -145.8430 67.2055 0.0000
v  -145.8430 67.2055 2.0000
v  -180.9469 67.2055 0.0000
v  -180.9469 67.2055 2.0000
v  -180.9469 21.0274 -0.0000
v  -180.9469 21.0274 2.0000
# 28 vertices

vn 1.0000 0.0000 -0.0000
vn 0.0000 -1.0000 -0.0000
vn -1.0000 0.0000 -0.0000
vn 0.9689 -0.2474 -0.0000
vn 0.9752 0.2212 0.0000
vn 0.0000 1.0000 0.0000
vn -0.0002 -1.0000 -0.0000
vn -0.0000 0.0000 -1.0000
vn 0.0000 0.0000 -1.0000
vn 0.0000 -0.0000 1.0000
# 10 vertex normals

g a_floor
usemtl wire_177028149
s 1
f 1//1 2//1 3//1 4//1 
s 4
f 2//2 5//2 6//2 3//2 
s 2
f 5//3 7//3 8//3 6//3 
s 4
f 7//2 9//2 10//2 8//2 
s 2
f 9//3 11//3 12//3 10//3 
s 4
f 11//2 13//2 14//2 12//2 
s 2
f 13//4 15//4 16//4 14//4 
s 4
f 15//1 17//1 18//1 16//1 
s 2
f 17//5 19//5 20//5 18//5 
s 4
f 19//6 21//6 22//6 20//6 
s 2
f 21//3 23//3 24//3 22//3 
s 4
f 23//6 25//6 26//6 24//6 
s 2
f 25//3 27//3 28//3 26//3 
s 4
f 27//7 1//7 4//7 28//7 
s 16
f 27//8 25//8 2//8 1//8 
f 23//9 19//9 2//8 25//8 
f 19//9 23//9 21//9 
f 19//9 9//9 5//9 2//8 
f 9//9 19//9 13//9 11//9 
f 5//9 9//9 7//9 
f 17//9 15//9 13//9 19//9 
f 28//10 4//10 3//10 26//10 
f 24//10 26//10 3//10 20//10 
f 20//10 22//10 24//10 
f 20//10 3//10 6//10 10//10 
f 10//10 12//10 14//10 20//10 
f 6//10 8//10 10//10 
f 18//10 20//10 14//10 16//10 
# 24 polygons - 4 triangles

#
# object a_room100001
#

v  -146.5358 28.4065 2.0000
v  -146.5358 37.6443 2.0000
v  -146.5358 37.6443 4.0000
v  -146.5358 28.4065 4.0000
v  -164.5497 37.6443 2.0000
v  -164.5497 37.6443 4.0000
v  -164.5497 28.4065 2.0000
v  -164.5497 28.4065 4.0000
# 8 vertices

vn 1.0000 0.0000 -0.0000
vn 0.0000 1.0000 0.0000
vn -1.0000 0.0000 -0.0000
vn 0.0000 -1.0000 -0.0000
vn 0.0000 0.0000 -1.0000
vn 0.0000 -0.0000 1.0000
# 6 vertex normals

g a_room100001
usemtl wire_176026026
s 1
f 29//11 30//11 31//11 32//11 
s 4
f 30//12 33//12 34//12 31//12 
s 2
f 33//13 35//13 36//13 34//13 
s 4
f 35//14 29//14 32//14 36//14 
s 16
f 33//15 30//15 29//15 35//15 
f 34//16 36//16 32//16 31//16 
# 6 polygons

#
# object a_room100003
#

v  -63.8568 64.8961 2.0000
v  -63.8568 81.9861 2.0000
v  -63.8568 81.9861 4.0000
v  -63.8568 64.8961 4.0000
v  -144.2263 81.9861 2.0000
v  -144.2263 81.9861 4.0000
v  -144.2263 64.8961 2.0000
v  -144.2263 64.8961 4.0000
# 8 vertices

vn 1.0000 0.0000 -0.0000
vn 0.0000 1.0000 0.0000
vn -1.0000 0.0000 -0.0000
vn 0.0000 -1.0000 -0.0000
vn 0.0000 0.0000 -1.0000
vn 0.0000 -0.0000 1.0000
# 6 vertex normals

g a_room100003
usemtl wire_176026026
s 1
f 37//17 38//17 39//17 40//17 
s 4
f 38//18 41//18 42//18 39//18 
s 2
f 41//19 43//19 44//19 42//19 
s 4
f 43//20 37//20 40//20 44//20 
s 16
f 41//21 38//21 37//21 43//21 
f 42//22 44//22 40//22 39//22 
# 6 polygons

