<?xml version="1.0" standalone="no"?><!DOCTYPE svg PUBLIC "-//W3C//DTD SVG 1.1//EN" "http://www.w3.org/Graphics/SVG/1.1/DTD/svg11.dtd"><svg t="1492005037904" class="icon" style="" viewBox="0 0 1385 1024" version="1.1" xmlns="http://www.w3.org/2000/svg" p-id="2199" xmlns:xlink="http://www.w3.org/1999/xlink" width="173.125" height="128"><defs><style type="text/css"></style></defs><path d="M978.042786 131.346022c3.071886 13.191041 5.601675 27.104878 7.770065 41.50058-311.585629 88.542601-504.451894 160.099479-913.856016 439.580886-3.071886 0 0-69.870352 0-69.870352C74.00476 495.153716 55.573443 464.133689 140.562293 391.55285l3.011653-2.590022V224.285636c-9.034959-90.168894 72.641073-81.4351 72.641073-81.435099 64.509609 0 64.509609 29.092569 64.509609 63.967512l2.650255 38.970791C369.08653 156.041577 466.362925 60.271009 531.535098 44.610413c108.600211-26.020683 282.67376-56.980477 349.592692-39.512889 34.694244 9.034959 58.185138 31.321192 74.508297 62.280986-170.037934 2.891187-386.696258 95.047772-385.009732 106.371587l7.709832 87.51864s174.67588-100.288048 399.646366-130.043181z m271.410178 882.534824c-7.830298-97.155929-132.693435-114.804216-85.95258-205.997072 46.740856-91.253089 220.031375-309.658171 220.031375-537.339146 0 0 19.575745-56.619078-60.473994-56.619078-563.600761-47.584119-1322.356642 495.7181-1322.356642 541.254295v76.616454s-7.830298 74.387832 45.536195 84.928618l1203.215646 97.155929z" p-id="2200" fill="#f4ea2a"></path></svg>